:FULLY-SPECIFIED
:FORCE-ALL-JOINTS-BE-3DOF
:DEGREES
713
root 5.51014 21.3588 7.3878 -30.2054 -88.482 46.4447
lfemur -34.4574 -12.2132 8.9851
ltibia 70.7525 -0 0
lfoot 7.18875 -8.76218 -0.0619104
ltoes 30.1894 -0 0
rfemur -33.1405 -1.38273 -0.431084
rtibia 90.3198 -0 0
rfoot 19.4385 -18.729 -0.179466
rtoes 39.5564 -0 0
lowerback 6.01715 -0.892361 -1.8004
upperback -1.27382 -1.41513 -1.51416
thorax -4.69108 -0.679227 -0.431074
lowerneck -6.86129 -6.212 -2.24919
upperneck -0.206483 -8.25797 4.83821
head 1.42014 -4.06417 1.6164
lclavicle 3.77691e-015 -7.95139e-016 0
lhumerus 0.904949 -21.5189 16.7979
lradius 46.7699 -0 0
lwrist 23.2479 0 0
lhand -21.6312 -3.21377 0.00235244
lfingers 7.12502 -0 0
lthumb 4.76475 26.71 0.00193057
rclavicle 3.77691e-015 -7.95139e-016 0
rhumerus -12.6499 -2.67237 -27.3942
rradius 98.8303 -0 0
rwrist -9.93894 0 0
rhand -27.5418 -35.3328 -0.00123724
rfingers 7.12502 -0 0
rthumb -0.943303 -65.3101 -0.00119515
714
root 5.51632 21.5248 7.5857 -114.811 -88.5347 131.091
lfemur -34.2732 -13.513 9.15372
ltibia 69.0394 0 0
lfoot 6.68345 -8.29926 0
ltoes 30.7132 0 0
rfemur -33.219 -1.14835 -1.23526
rtibia 91.4966 0 0
rfoot 20.8563 -19.1874 0
rtoes 40.821 0 0
lowerback 6.14711 -0.699867 -1.84115
upperback -1.26194 -1.16723 -1.5753
thorax -4.75466 -0.555866 -0.47938
lowerneck -6.80973 -6.29731 -2.34534
upperneck -0.317173 -8.36323 4.91648
head 1.38488 -4.11871 1.65447
lclavicle 3.77691e-015 -7.95139e-016 0
lhumerus -0.00677256 -20.6113 16.0088
lradius 45.2287 0 0
lwrist 22.9737 0 0
lhand -21.8284 -3.2593 0
lfingers 7.12502 0 0
lthumb 4.57444 26.6713 0
rclavicle 3.77691e-015 -7.95139e-016 0
rhumerus -11.6072 -2.62759 -27.0112
rradius 99.2225 0 0
rwrist -9.63092 0 0
rhand -27.5551 -34.9797 0
rfingers 7.12502 0 0
rthumb -0.956194 -784.957 0
715
root 5.47463 21.3796 7.79503 2.3484 -81.6887 12.9683
lfemur -34.0328 -13.1982 8.41084
ltibia 68.1088 -0 0
lfoot 5.58342 -7.87294 -0.126885
ltoes 29.8864 -0 0
rfemur -32.9716 -2.13607 -0.916514
rtibia 92.0929 -0 0
rfoot 20.6981 -18.3873 -0.033657
rtoes 40.0268 -0 0
lowerback 6.01029 -0.448193 -1.81953
upperback -1.27683 -0.825447 -1.55702
thorax -4.69301 -0.385762 -0.488952
lowerneck -6.80809 -6.36366 -2.30024
upperneck -0.368651 -8.45593 4.90553
head 1.36787 -4.16736 1.64119
lclavicle -3.29983e-014 5.56597e-015 0
lhumerus -1.96935 -21.0127 17.901
lradius 45.3035 -0 0
lwrist 22.7872 0 0
lhand -21.9953 -3.27367 0.000628393
lfingers 7.12502 -0 0
lthumb 4.41323 26.6585 0.000540504
rclavicle -3.29983e-014 5.56597e-015 0
rhumerus -9.93558 -1.9218 -28.4798
rradius 99.137 -0 0
rwrist -9.42799 0 0
rhand -27.4586 -34.6037 0.00953028
rfingers 7.12502 -0 0
rthumb -0.863007 -64.5808 0.00920993
716
root 5.43293 21.2343 8.00435 6.16824 -72.6499 8.17411
lfemur -33.7969 -12.8804 7.67027
ltibia 67.1782 -0 0
lfoot 4.48247 -7.44425 -0.245558
ltoes 29.0597 -0 0
rfemur -32.7295 -3.12515 -0.60179
rtibia 92.6893 -0 0
rfoot 20.5394 -17.5872 -0.0651011
rtoes 39.2326 -0 0
lowerback 5.87357 -0.196469 -1.79851
upperback -1.29161 -0.48366 -1.53882
thorax -4.63139 -0.215648 -0.49834
lowerneck -6.8065 -6.43 -2.25513
upperneck -0.420124 -8.54863 4.89466
head 1.35086 -4.21601 1.62792
lclavicle -3.29983e-014 5.56597e-015 0
lhumerus -3.95002 -21.3529 19.8116
lradius 45.3783 -0 0
lwrist 22.6007 0 0
lhand -22.1623 -3.28804 0.00121492
lfingers 7.12502 -0 0
lthumb 4.25202 26.6457 0.00104499
rclavicle -3.29983e-014 5.56597e-015 0
rhumerus -8.28317 -1.17375 -29.9266
rradius 99.0515 -0 0
rwrist -9.22506 0 0
rhand -27.3621 -34.2277 0.0184272
rfingers 7.12502 -0 0
rthumb -0.769762 -64.2045 0.0178078
717
root 5.39124 21.0891 8.21368 7.03387 -63.5818 6.31028
lfemur -33.5656 -12.5597 6.93198
ltibia 66.2476 -0 0
lfoot 3.38065 -7.01337 -0.35597
ltoes 28.2329 -0 0
rfemur -32.4925 -4.11553 -0.290915
rtibia 93.2856 -0 0
rfoot 20.3803 -16.787 -0.094326
rtoes 38.4384 -0 0
lowerback 5.73695 0.0553053 -1.77809
upperback -1.30628 -0.141868 -1.52071
thorax -4.5698 -0.0455232 -0.507546
lowerneck -6.80497 -6.49635 -2.21002
upperneck -0.471591 -8.64135 4.88388
head 1.33387 -4.26467 1.61466
lclavicle -3.29983e-014 5.56597e-015 0
lhumerus -5.94599 -21.6311 21.7377
lradius 45.4531 -0 0
lwrist 22.4142 0 0
lhand -22.3292 -3.30242 0.00175957
lfingers 7.12502 -0 0
lthumb 4.09081 26.6329 0.00151346
rclavicle -3.29983e-014 5.56597e-015 0
rhumerus -6.65047 -0.384539 -31.351
rradius 98.966 -0 0
rwrist -9.02214 0 0
rhand -27.2655 -33.8517 0.0266903
rfingers 7.12502 -0 0
rthumb -0.676463 -63.8283 0.0257931
718
root 5.34955 20.9438 8.423 7.19113 -54.5085 5.11693
lfemur -33.3387 -12.2361 6.19594
ltibia 65.317 -0 0
lfoot 2.27802 -6.58043 -0.458072
ltoes 27.4061 -0 0
rfemur -32.2607 -5.10718 0.0162808
rtibia 93.8819 -0 0
rfoot 20.2208 -15.9867 -0.121326
rtoes 37.6443 -0 0
lowerback 5.60041 0.307127 -1.75827
upperback -1.32084 0.199928 -1.5027
thorax -4.50823 0.124611 -0.516569
lowerneck -6.80348 -6.5627 -2.16491
upperneck -0.523053 -8.73408 4.87317
head 1.31689 -4.31334 1.60142
lclavicle -3.29983e-014 5.56597e-015 0
lhumerus -7.95433 -21.8466 23.6764
lradius 45.5279 -0 0
lwrist 22.2277 0 0
lhand -22.4961 -3.31679 0.00226234
lfingers 7.12502 -0 0
lthumb 3.9296 26.6201 0.00194591
rclavicle -3.29983e-014 5.56597e-015 0
rhumerus -5.03788 0.444682 -32.7524
rradius 98.8805 -0 0
rwrist -8.81921 0 0
rhand -27.1688 -33.4756 0.0343193
rfingers 7.12502 -0 0
rthumb -0.583113 -63.452 0.0331656
